<?xml version='1.0' encoding='utf-8'?>
<svg xmlns="http://www.w3.org/2000/svg" version="1.1" x="0px" y="0px" viewBox="63 0 386 523.438" style="enable-background:new 0 0 512 512;" xml:space="preserve" preserveAspectRatio="xMidYMid meet"><style type="text/css">
	.st0{display:none;}
	.st1{display:inline;}
</style><g><g><path d="M247.908,199.128c2.638-2.004,3.152-5.768,1.148-8.406c-2.004-2.638-5.768-3.152-8.406-1.148    c-2.638,2.004-3.152,5.768-1.148,8.406C241.507,200.618,245.27,201.132,247.908,199.128z" /><path d="M274.624,213.441c2.638-2.004,3.152-5.768,1.148-8.406c-2.004-2.638-5.768-3.152-8.406-1.148s-3.152,5.768-1.148,8.406    S271.986,215.445,274.624,213.441z" /><path d="M246.286,221.14c2.004,2.638,5.768,3.152,8.406,1.148c2.638-2.004,3.152-5.768,1.148-8.406    c-2.004-2.638-5.768-3.152-8.406-1.148C244.796,214.739,244.282,218.502,246.286,221.14z" /><path d="M220.396,361.932v40.873h-7.437c-5.7,0-10.806,3.396-13.009,8.653c-2.203,5.256-1.045,11.279,2.951,15.343l43.041,43.77    c2.673,2.718,6.245,4.216,10.058,4.215c3.813,0,7.384-1.497,10.057-4.216l43.041-43.77c3.996-4.064,5.154-10.086,2.951-15.343    c-2.203-5.256-7.31-8.653-13.009-8.653h-7.438v-40.873c0-7.778-6.328-14.106-14.105-14.106h-42.996    C226.724,347.826,220.396,354.154,220.396,361.932z M279.604,361.932v46.873c0,3.313,2.687,6,6,6h13.438    c1.219,0,1.739,0.809,1.941,1.292s0.414,1.422-0.44,2.291l-43.041,43.77c0,0,0,0,0,0c-1.183,0.893-1.819,0.893-3.002,0    l-43.041-43.77c-0.854-0.869-0.643-1.808-0.44-2.29s0.723-1.292,1.942-1.292h13.437c3.313,0,6-2.687,6-6v-46.873    c0-1.161,0.945-2.106,2.106-2.106h42.996C278.659,359.826,279.604,360.771,279.604,361.932z" /><path d="M243.48,102.782c0,3.313,2.687,6,6,6s6-2.687,6-6c0-5.514,2.029-7.914,5.102-11.546c3.536-4.182,7.938-9.388,7.938-19.294    s-4.401-15.112-7.938-19.294c-3.072-3.633-5.102-6.033-5.102-11.546c0-5.512,2.029-7.912,5.101-11.544    c3.537-4.182,7.938-9.387,7.938-19.292c0-3.313-2.687-6-6-6s-6,2.687-6,6c0,5.512-2.029,7.912-5.101,11.543    c-3.537,4.182-7.938,9.387-7.938,19.293c0,9.907,4.401,15.112,7.938,19.294c3.072,3.633,5.101,6.033,5.101,11.546    s-2.029,7.914-5.101,11.546C247.882,87.67,243.48,92.875,243.48,102.782z" /><path d="M200.23,102.782c0,3.313,2.687,6,6,6s6-2.687,6-6c0-5.514,2.029-7.914,5.101-11.546c3.536-4.183,7.938-9.388,7.938-19.294    s-4.401-15.112-7.938-19.294c-3.072-3.633-5.101-6.033-5.101-11.546c0-3.313-2.687-6-6-6s-6,2.687-6,6    c0,9.907,4.401,15.112,7.938,19.294c3.072,3.633,5.101,6.033,5.101,11.546s-2.029,7.914-5.101,11.546    C204.631,87.67,200.23,92.875,200.23,102.782z" /><path d="M286.731,102.782c0,3.313,2.687,6,6,6s6-2.687,6-6c0-5.514,2.029-7.914,5.102-11.546    c3.536-4.182,7.938-9.388,7.938-19.294s-4.401-15.112-7.938-19.294c-3.072-3.633-5.102-6.033-5.102-11.546c0-3.313-2.687-6-6-6    s-6,2.687-6,6c0,9.907,4.401,15.112,7.938,19.294c3.072,3.633,5.102,6.033,5.102,11.546s-2.029,7.914-5.102,11.546    C291.133,87.67,286.731,92.875,286.731,102.782z" /><path d="M447.963,115.521c0.733,0.294,1.489,0.433,2.233,0.433c2.379,0,4.63-1.424,5.57-3.766l3.735-9.305    c1.234-3.075-0.258-6.569-3.333-7.804c-3.079-1.234-6.569,0.257-7.804,3.333l-3.735,9.305    C443.396,110.792,444.888,114.286,447.963,115.521z" /><path d="M422.32,112.556c0.974,2.278,3.189,3.644,5.521,3.644c0.786,0,1.586-0.156,2.354-0.484    c3.047-1.302,4.462-4.828,3.16-7.875l-3.939-9.221c-1.303-3.047-4.827-4.46-7.875-3.16c-3.047,1.302-4.462,4.828-3.16,7.875    L422.32,112.556z" /><path d="M466.872,131.865c0.786,0,1.585-0.155,2.354-0.484l9.221-3.939c3.047-1.302,4.462-4.827,3.16-7.875    s-4.824-4.464-7.875-3.161l-9.221,3.939c-3.047,1.302-4.462,4.827-3.16,7.875C462.325,130.5,464.541,131.865,466.872,131.865z" /><circle cx="454.105" cy="320.519" r="6" /><path d="M453.55,149.097c-22.507-14.403-61.968-21.111-124.187-21.111H182.637c-62.219,0-101.68,6.708-124.186,21.111    c-22.939,14.68-26.505,35.667-28.192,55.906c-3.024,36.291,14.208,52.915,21.636,58.325v103.298    c0,44.865,36.5,81.365,81.365,81.365h32.996c14.493,35.327,49.257,60.274,89.744,60.274c40.487,0,75.251-24.947,89.744-60.274    h32.996c44.865,0,81.365-36.5,81.365-81.365v-23.106c0-3.313-2.687-6-6-6s-6,2.687-6,6v23.106    c0,38.248-31.117,69.365-69.365,69.365h-28.97c2.077-7.884,3.188-16.156,3.188-24.684c0-32.008-15.594-60.438-39.579-78.105    v-69.874c7.429-5.41,24.659-22.034,21.636-58.325c-1.687-20.238-5.253-41.226-28.191-55.906    c-5.444-3.484-11.891-6.514-19.402-9.111h41.942c59.823,0,97.229,6.107,117.718,19.219c16.611,10.63,20.902,25.208,22.701,46.794    c2.692,32.308-12.984,45.153-17.349,48.076H352.424c-3.313,0-6,2.686-6,6s2.687,6,6,6h95.682v31.444c0,3.313,2.687,6,6,6    s6-2.687,6-6v-34.191c7.429-5.41,24.659-22.034,21.636-58.325C480.055,184.764,476.488,163.776,453.55,149.097z M133.26,409.424    c-23.6,0-42.8-19.2-42.8-42.799V243.907c0-2.243-1.251-4.299-3.243-5.329l-12.981-6.715c-1.342-1.203-6.912-7.247-5.544-23.658    c1.497-17.96,3.946-22.4,10.547-26.625c10.714-6.856,37.35-15.029,103.398-15.029c66.05,0,92.685,8.173,103.397,15.029    c6.603,4.225,9.052,8.666,10.548,26.625c1.368,16.417-4.202,22.457-5.543,23.658l-12.982,6.716    c-1.992,1.03-3.243,3.086-3.243,5.329v72.28c-6.088-1.202-12.378-1.838-18.813-1.838c-52.833,0-95.927,42.479-96.934,95.076    H133.26z M340.958,411.306c0,46.846-38.112,84.958-84.958,84.958s-84.958-38.112-84.958-84.958    c0-46.846,38.112-84.958,84.958-84.958S340.958,364.46,340.958,411.306z M300.354,159.204    c16.611,10.63,20.902,25.208,22.701,46.794c3.059,36.704-17.599,48.295-18.434,48.747c-1.992,1.03-3.243,3.086-3.243,5.329v65.571    c-4.645-2.471-9.512-4.578-14.565-6.276v-71.811l10.279-5.317c0.284-0.147,0.557-0.317,0.814-0.508    c2.985-2.211,12.574-11.235,10.634-34.525c-1.519-18.23-4.307-28.228-16.038-35.736c-17.792-11.386-53.729-16.921-109.866-16.921    c-56.136,0-92.073,5.535-109.867,16.921c-11.731,7.507-14.518,17.505-16.038,35.736c-1.94,23.283,7.648,32.312,10.633,34.524    c-0.119,0.111,10.805,5.643,11.095,5.826v119.066c0,30.216,24.583,54.799,54.8,54.799h26.309c0.518,4.976,1.417,9.84,2.662,14.565    H133.26c-38.248,0-69.365-31.117-69.365-69.365v-106.55c0-2.243-1.206-4.275-3.198-5.305    c-0.881-0.476-21.538-12.067-18.479-48.771c1.799-21.587,6.09-36.164,22.701-46.794c20.488-13.112,57.894-19.219,117.717-19.219    C242.46,139.985,279.866,146.092,300.354,159.204z" /></g></g></svg>