<?xml version='1.0' encoding='utf-8'?>
<svg xmlns="http://www.w3.org/2000/svg" version="1.1" x="0px" y="0px" viewBox="16.0645 7.56836 67.8711 84.8389" style="enable-background:new 0 0 100 100;" xml:space="preserve" preserveAspectRatio="xMidYMid meet"><path d="M89,54.7138672H11c-0.5522461,0-1,0.4472656-1,1V64c0,14.3369141,11.6635742,26,26,26h28c14.3364258,0,26-11.6630859,26-26  v-8.2861328C90,55.1611328,89.5522461,54.7138672,89,54.7138672z M88,64c0,13.2333984-10.7661133,24-24,24H36  c-13.2338867,0-24-10.7666016-24-24v-7.2861328h76V64z" /><path d="M12.8383789,30.9873047c-4.128418,4.9160156-3.7114258,12.4189453,0.9511719,17.0810547  c1.8842773,1.8847656,4.9516602,1.8847656,6.8369141,0l1.7128906-1.7128906l2.0214844,2.2841797  c0.6679688,0.7246094,1.578125,1.1357422,2.5639648,1.15625c0.0258789,0,0.0512695,0.0009766,0.0771484,0.0009766  c0.9570312,0,1.8544922-0.3720703,2.5336914-1.0507812l2.6420898-2.6425781  c0.6972656-0.6962891,1.0698242-1.6230469,1.0498047-2.609375c-0.0200195-0.9853516-0.4306641-1.8964844-1.1704102-2.578125  l-2.2695312-2.0087891l1.7128906-1.7128906c1.8842773-1.8847656,1.8847656-4.9511719,0-6.8369141l-0.1953125-0.1953125  c-2.4755859-2.4755859-5.8999023-3.8125-9.4023438-3.65625C18.3549805,26.6601562,15.1357422,28.2519531,12.8383789,30.9873047z   M21.9892578,28.5039062c2.9462891-0.1142578,5.8212891,0.9921875,7.9018555,3.0722656l0.1948242,0.1953125  c1.1049805,1.1054688,1.1054688,2.9042969,0.0004883,4.0087891l-2.4643555,2.4638672  c-0.1948242,0.1953125-0.3007812,0.4619141-0.2924805,0.7373047s0.1303711,0.5351562,0.3364258,0.71875l3.0507812,2.7001953  c0.3208008,0.2958984,0.5024414,0.6982422,0.5112305,1.1347656s-0.1557617,0.8457031-0.4643555,1.1542969l-2.6420898,2.6425781  c-0.3081055,0.3076172-0.7070312,0.4746094-1.1552734,0.4638672c-0.4360352-0.0087891-0.8383789-0.1904297-1.1206055-0.4970703  l-2.7128906-3.0654297c-0.1831055-0.2060547-0.4428711-0.328125-0.71875-0.3369141c-0.0102539,0-0.0200195,0-0.0302734,0  c-0.2646484,0-0.5195312,0.1054688-0.7070312,0.2929688l-2.4643555,2.4648438c-1.1054688,1.1054688-2.9033203,1.1054688-4.0087891,0  c-3.9355469-3.9355469-4.3017578-10.2519531-0.8339844-14.3798828  C16.3027344,29.9726562,19.0087891,28.6337891,21.9892578,28.5039062z" /><path d="M39.1928711,36.1494141c-0.9150391,2.6777344,0.3969727,5.7236328,3.0517578,7.0849609L49,46.6988525V50  c0,0.5527344,0.4477539,1,1,1s1-0.4472656,1-1v-3.3011475l6.7553711-3.4644775  c2.6547852-1.3613281,3.9667969-4.4072266,3.0517578-7.0849609c-0.2988281-0.8730469-0.7827148-1.6484375-1.4379883-2.3027344  c-0.0341797-0.0351562-0.0688477-0.0683594-0.1040039-0.1025391c1.7265625-1.8496094,2.2626953-4.5429688,1.3266602-6.7734375  c-0.3115234-0.7421875-0.7553711-1.3876953-1.324707-1.9296875c2.2905273-2.3447266,2.4443359-6.0009766,0.3398438-8.3564453  c-0.9755859-1.0927734-2.3037109-1.7822266-3.7373047-1.9628906C55.2734375,12.0126953,52.8481445,10,50,10  s-5.2734375,2.0126953-5.8696289,4.7216797c-1.4335938,0.1806641-2.7617188,0.8701172-3.7368164,1.9628906  c-2.1049805,2.3554688-1.9511719,6.0117188,0.3393555,8.3564453c-0.5693359,0.5419922-1.0131836,1.1884766-1.3251953,1.9306641  c-0.9355469,2.2304688-0.3994141,4.9228516,1.3271484,6.7724609c-0.034668,0.0332031-0.0693359,0.0673828-0.1035156,0.1015625  C39.9755859,34.5009766,39.4916992,35.2763672,39.1928711,36.1494141z M42.9482422,33.1347656l-0.6396484-0.6396484  c-1.284668-1.2841797-1.7094727-3.1933594-1.0566406-4.7490234C41.5654297,27,42.0615234,26.4238281,42.7685547,25.984375  c0.2592773-0.1611328,0.4306641-0.4326172,0.4658203-0.7353516c0.034668-0.3037109-0.0708008-0.6054688-0.2866211-0.8212891  l-0.746582-0.7460938c-1.565918-1.5664062-1.7080078-4.1074219-0.315918-5.6650391  c0.7641602-0.8564453,1.8535156-1.3417969,3.0004883-1.3417969c0.0307617,0,0.0620117,0,0.0927734,0.0009766  c0.5244141-0.0117188,0.9848633-0.3994141,1.0205078-0.9326172C46.1401367,13.6435547,47.8974609,12,50,12  s3.8598633,1.6435547,4.0009766,3.7431641c0.0356445,0.5332031,0.480957,0.9189453,1.0205078,0.9326172  c1.1875-0.0273438,2.3085938,0.4619141,3.09375,1.3408203c1.3916016,1.5576172,1.2495117,4.0986328-0.3164062,5.6650391  l-0.746582,0.7460938c-0.2158203,0.2158203-0.3212891,0.5175781-0.2866211,0.8212891  c0.0351562,0.3027344,0.206543,0.5742188,0.4658203,0.7353516c0.7070312,0.4394531,1.203125,1.015625,1.5161133,1.7607422  c0.6533203,1.5566406,0.2285156,3.4658203-1.0566406,4.75l-0.6391602,0.6396484  c-0.215332,0.2158203-0.3208008,0.5185547-0.2861328,0.8212891c0.0351562,0.3037109,0.206543,0.5742188,0.465332,0.7353516  c0.2763672,0.1708984,0.5126953,0.3574219,0.7236328,0.5683594c0.4384766,0.4384766,0.7612305,0.9550781,0.9599609,1.5361328  c0.5961914,1.7441406-0.2944336,3.7470703-2.0722656,4.6591797L51,44.4510498V23.2070312c0-0.5527344-0.4477539-1-1-1  s-1,0.4472656-1,1v21.2440186l-5.8422852-2.9959717c-1.777832-0.9121094-2.668457-2.9150391-2.0722656-4.6591797  c0.1987305-0.5810547,0.5214844-1.0976562,0.9604492-1.5371094c0.2104492-0.2099609,0.4467773-0.3964844,0.7231445-0.5673828  c0.2587891-0.1611328,0.4301758-0.4316406,0.465332-0.7353516C43.269043,33.6533203,43.1635742,33.3505859,42.9482422,33.1347656z" /><path d="M32.9335938,16.5693359C32.9335938,12.9472656,29.9868164,10,26.3647461,10  c-3.6225586,0-6.5693359,2.9472656-6.5693359,6.5693359s2.9467773,6.5683594,6.5693359,6.5683594  C29.9868164,23.1376953,32.9335938,20.1914062,32.9335938,16.5693359z M21.7954102,16.5693359  C21.7954102,14.0498047,23.8452148,12,26.3647461,12c2.519043,0,4.5688477,2.0498047,4.5688477,4.5693359  c0,2.5185547-2.0498047,4.5683594-4.5688477,4.5683594C23.8452148,21.1376953,21.7954102,19.0878906,21.7954102,16.5693359z" /><path d="M77.5952148,26.1904297c-6.840332,0-12.4052734,5.5644531-12.4052734,12.4042969S70.7548828,51,77.5952148,51  C84.4350586,51,90,45.4345703,90,38.5947266S84.4350586,26.1904297,77.5952148,26.1904297z M77.5952148,49  c-5.7373047,0-10.4052734-4.6679688-10.4052734-10.4052734s4.6679688-10.4042969,10.4052734-10.4042969S88,32.8574219,88,38.5947266  S83.3325195,49,77.5952148,49z" /><path d="M77.5952148,32.5019531c-3.359375,0-6.0927734,2.7333984-6.0927734,6.0927734S74.2358398,44.6875,77.5952148,44.6875  S83.6875,41.9541016,83.6875,38.5947266S80.9545898,32.5019531,77.5952148,32.5019531z M77.5952148,42.6875  c-2.2568359,0-4.0927734-1.8359375-4.0927734-4.0927734s1.8359375-4.0927734,4.0927734-4.0927734  c2.2563477,0,4.0922852,1.8359375,4.0922852,4.0927734S79.8515625,42.6875,77.5952148,42.6875z" /><path d="M68.6459961,17.2353516V11c0-0.5527344-0.4477539-1-1-1s-1,0.4472656-1,1v6.2353516c0,0.5527344,0.4477539,1,1,1  S68.6459961,17.7880859,68.6459961,17.2353516z" /><path d="M74.6298828,20.7216797L79.0390625,16.3125c0.390625-0.390625,0.390625-1.0234375,0-1.4140625  s-1.0234375-0.390625-1.4140625,0l-4.4091797,4.4091797c-0.390625,0.390625-0.390625,1.0234375,0,1.4140625  c0.1953125,0.1953125,0.4511719,0.2929688,0.7070312,0.2929688S74.4345703,20.9169922,74.6298828,20.7216797z" /></svg>