<?xml version='1.0' encoding='utf-8'?>
<svg xmlns="http://www.w3.org/2000/svg" viewBox="14 6.91406 35.9375 50.1172" x="0px" y="0px" preserveAspectRatio="xMidYMid meet"><g data-name="Hot Chilli"><path d="M52.16,27.46a5.73,5.73,0,0,0-3.7-2.54,16.19,16.19,0,0,0,0-7.24,1,1,0,0,0-1.2-.76,1,1,0,0,0-.76,1.19,14.14,14.14,0,0,1-.06,6.53c-4.54-.46-7.49,0-9.81,8.87s-19.78,18-24.91,19.34a1,1,0,0,0,0,1.95,40.18,40.18,0,0,0,8.24.8,34.22,34.22,0,0,0,14.85-3.12C46.21,47,50.05,40.12,52,35.46,53.28,32.21,53.35,29.44,52.16,27.46ZM50.1,34.71c-1.78,4.35-5.38,10.75-16.1,16-6.42,3.12-13.64,3.11-17.95,2.72C23.57,50.1,36.48,42.1,38.6,34s4.14-7.76,7.86-7.37l.63.07a4.1,4.1,0,0,1,3.35,1.79C51.29,29.89,51.16,32.1,50.1,34.71Zm-2.63,1a23.36,23.36,0,0,1-4,5.89A1,1,0,1,1,42,40.23a21.55,21.55,0,0,0,3.7-5.41,1,1,0,1,1,1.8.88ZM48.86,32c0,.23-.11.48-.19.76a1,1,0,0,1-1,.71.9.9,0,0,1-.28,0,1,1,0,0,1-.68-1.24,4,4,0,0,0,.15-.6,1,1,0,0,1,2,.41ZM17,46.25C17,46.17,9.37,38,16.34,30.58a1,1,0,0,1,1.72.79c-.25,2.31.62,4.28,1.58,4.78.19.1.79.41,1.79-.48a3.08,3.08,0,0,0,1.26-2.44c-.05-1.27-1.08-2.76-2.83-4.09a8,8,0,0,1-3.09-6.88,7,7,0,0,1,4.11-5.6,1,1,0,0,1,1.09.12,1,1,0,0,1,.32,1c-.34,1.19.16,1.94.61,2.08s1.23-.39,1.71-1.92c1.36-4.28,1-6,.53-6.63-.13-.16-.53-.68-1.92-.59a1,1,0,0,1-1-.83,1,1,0,0,1,.69-1.13c.2-.06,4.93-1.45,7.62,1.22,1.93,1.92,2.19,5.32.77,10.1-1.15,3.89-.62,4.63-.61,4.63.2,0,1.42-.56,3.16-2.5C35.83,20,37,17.61,37,16.7a1.3,1.3,0,0,0,0-.21,1,1,0,0,1,1.95-.44,1.5,1.5,0,0,1,.06.29c.27,1.26,1,3.08,1.79,3.38.33.12.78,0,1.34-.5a1,1,0,0,1,1.4.12,1,1,0,0,1-.12,1.41A3.23,3.23,0,0,1,40,21.6a4,4,0,0,1-2-1.89,19.47,19.47,0,0,1-5.2,6.13c-1.74,1.2-2.8.95-3.39.52-1.21-.87-1.24-3-.1-6.8s1.08-6.77-.27-8.11a3.79,3.79,0,0,0-2.15-1c1,1.6.83,4.2-.42,8.13-1,3-2.87,3.63-4.2,3.23a3.13,3.13,0,0,1-2.05-2.36,4.5,4.5,0,0,0-1.5,3,6,6,0,0,0,2.3,5.11c2.26,1.71,3.55,3.7,3.62,5.61a5,5,0,0,1-1.94,4,3.41,3.41,0,0,1-4,.74,5.49,5.49,0,0,1-2.49-3.78c-2.73,5.35,2,10.49,2.25,10.74A1,1,0,0,1,17,46.25Z" /></g></svg>